REM MD5 9509b88f7ca37e4d2df655a052b62f67
FILE "Jersey Devil no Daibouken (Japan).bin" BINARY
  TRACK 01 MODE2/2352
    INDEX 01 00:00:00
  TRACK 02 AUDIO
    INDEX 00 11:51:25
    INDEX 01 11:53:25
  TRACK 03 AUDIO
    INDEX 00 11:58:65
    INDEX 01 12:00:65
  TRACK 04 AUDIO
    INDEX 00 13:53:13
    INDEX 01 13:55:13
  TRACK 05 AUDIO
    INDEX 00 15:05:13
    INDEX 01 15:07:13
  TRACK 06 AUDIO
    INDEX 00 16:42:68
    INDEX 01 16:44:68
  TRACK 07 AUDIO
    INDEX 00 18:38:63
    INDEX 01 18:40:63
  TRACK 08 AUDIO
    INDEX 00 20:34:14
    INDEX 01 20:36:14
  TRACK 09 AUDIO
    INDEX 00 22:36:22
    INDEX 01 22:38:22
  TRACK 10 AUDIO
    INDEX 00 24:17:23
    INDEX 01 24:19:23
  TRACK 11 AUDIO
    INDEX 00 24:55:01
    INDEX 01 24:57:01
  TRACK 12 AUDIO
    INDEX 00 26:53:32
    INDEX 01 26:55:32
  TRACK 13 AUDIO
    INDEX 00 27:00:72
    INDEX 01 27:02:72
  TRACK 14 AUDIO
    INDEX 00 29:05:43
    INDEX 01 29:07:43
  TRACK 15 AUDIO
    INDEX 00 29:56:67
    INDEX 01 29:58:67
  TRACK 16 AUDIO
    INDEX 00 31:52:52
    INDEX 01 31:54:52
  TRACK 17 AUDIO
    INDEX 00 33:45:07
    INDEX 01 33:47:07
  TRACK 18 AUDIO
    INDEX 00 35:49:02
    INDEX 01 35:51:02
  TRACK 19 AUDIO
    INDEX 00 36:38:34
    INDEX 01 36:40:34
  TRACK 20 AUDIO
    INDEX 00 38:40:48
    INDEX 01 38:42:48
  TRACK 21 AUDIO
    INDEX 00 40:35:32
    INDEX 01 40:37:32
  TRACK 22 AUDIO
    INDEX 00 42:22:28
    INDEX 01 42:24:28
  TRACK 23 AUDIO
    INDEX 00 42:29:68
    INDEX 01 42:31:68
  TRACK 24 AUDIO
    INDEX 00 43:44:37
    INDEX 01 43:46:37
  TRACK 25 AUDIO
    INDEX 00 45:39:19
    INDEX 01 45:41:19
  TRACK 26 AUDIO
    INDEX 00 47:20:67
    INDEX 01 47:22:67
  TRACK 27 AUDIO
    INDEX 00 49:32:35
    INDEX 01 49:34:35
  TRACK 28 AUDIO
    INDEX 00 51:27:45
    INDEX 01 51:29:45
  TRACK 29 AUDIO
    INDEX 00 52:52:08
    INDEX 01 52:54:08
  TRACK 30 AUDIO
    INDEX 00 53:58:03
    INDEX 01 54:00:03
  TRACK 31 AUDIO
    INDEX 00 55:30:69
    INDEX 01 55:32:69
  TRACK 32 AUDIO
    INDEX 00 56:36:61
    INDEX 01 56:38:61
  TRACK 33 AUDIO
    INDEX 00 58:26:71
    INDEX 01 58:28:71
  TRACK 34 AUDIO
    INDEX 00 58:34:36
    INDEX 01 58:36:36
  TRACK 35 AUDIO
    INDEX 00 60:32:32
    INDEX 01 60:34:32
  TRACK 36 AUDIO
    INDEX 00 60:39:70
    INDEX 01 60:41:70
  TRACK 37 AUDIO
    INDEX 00 61:13:25
    INDEX 01 61:15:25
  TRACK 38 AUDIO
    INDEX 00 61:20:63
    INDEX 01 61:22:63
  TRACK 39 AUDIO
    INDEX 00 62:14:52
    INDEX 01 62:16:52
  TRACK 40 AUDIO
    INDEX 00 62:22:15
    INDEX 01 62:24:15
  TRACK 41 AUDIO
    INDEX 00 62:29:53
    INDEX 01 62:31:53
  TRACK 42 AUDIO
    INDEX 00 62:37:16
    INDEX 01 62:39:16
  TRACK 43 AUDIO
    INDEX 00 62:44:56
    INDEX 01 62:46:56
  TRACK 44 AUDIO
    INDEX 00 62:52:19
    INDEX 01 62:54:19
  TRACK 45 AUDIO
    INDEX 00 63:27:22
    INDEX 01 63:29:22
  TRACK 46 AUDIO
    INDEX 00 63:34:60
    INDEX 01 63:36:60
  TRACK 47 AUDIO
    INDEX 00 65:41:54
    INDEX 01 65:43:54
REM LEADOUT 66:43:54
